<svg xmlns="http://www.w3.org/2000/svg" viewBox="0 0 200 200"><defs><linearGradient id="a" x1="98.97" y1="98.979" x2="199.995" y2="200.005" gradientUnits="userSpaceOnUse"><stop offset="0" stop-color="#171923" stop-opacity=".5"/><stop offset="1" stop-color="#1f110a" stop-opacity="0"/></linearGradient><radialGradient id="b" cx="-182.93" cy="-127.563" r=".21" gradientTransform="matrix(545.674 0 0 -528.311 99894.631 -67333.558)" gradientUnits="userSpaceOnUse"><stop offset="0" stop-color="#453055" stop-opacity=".98"/><stop offset="1" stop-color="#18102b"/></radialGradient></defs><title>aafterfx</title><path fill="#816e89" d="M0 0h200v200H0z"/><path fill="url(#a)" d="M200 40l-17.949-20L17.949 180l19.982 20H200V40z"/><path d="M24.786 26.838h150.428v146.324H24.786V26.838z" fill="url(#b)"/><path d="M24.786 26.838h150.428v146.324H24.786V26.838zM17.949 180h164.1V20h-164.1v160zm116.1-82.872a30.251 30.251 0 0 0 5.06-.137c0-.479.137-.821.137-1.163 0-3.692-1.778-10.53-8.889-10.53-6.564 0-9.367 5.743-10.051 11.829h13.744zm-13.88 9.367c.137 9.231 4.513 15.453 14.906 15.453a26.761 26.761 0 0 0 11.145-2.119c.479-.205.821-.137.821.479v8.547a1.448 1.448 0 0 1-.684 1.368c-3.624 1.778-8.137 2.6-13.744 2.6-18.051 0-24.82-13.333-24.82-28.171 0-16.137 8.342-29.333 23.043-29.333 14.906 0 20.1 12.513 20.1 22.7a34.577 34.577 0 0 1-.547 7.248 1.017 1.017 0 0 1-.889.889 98.987 98.987 0 0 1-11.419.478h-17.91v-.134zm-36.647-6.974c-1.915-7.59-6.564-24.137-8.274-32.137h-.137c-1.436 8-5.2 21.538-8 32.137h16.411zM64.308 110.6l-5.4 20.444a.847.847 0 0 1-1.026.752H47.829c-.684 0-.821-.205-.684-1.025l19.419-67.9a20.959 20.959 0 0 0 .684-5.607.552.552 0 0 1 .547-.684h14.359a.714.714 0 0 1 .821.684l21.743 73.641c.137.547 0 .889-.547.889H92.889a.926.926 0 0 1-1.026-.683L86.256 110.6H64.308z" fill="#c3a3cd"/></svg>