<svg xmlns="http://www.w3.org/2000/svg" viewBox="0 0 200 200"><defs><linearGradient id="a" x1="98.97" y1="98.979" x2="199.995" y2="200.005" gradientUnits="userSpaceOnUse"><stop offset="0" stop-color="#171923" stop-opacity=".5"/><stop offset="1" stop-color="#1f110a" stop-opacity="0"/></linearGradient><radialGradient id="b" cx="-182.93" cy="-127.563" r=".21" gradientTransform="matrix(545.674 0 0 -528.311 99894.631 -67333.558)" gradientUnits="userSpaceOnUse"><stop offset="0" stop-color="#4c2e50" stop-opacity=".98"/><stop offset="1" stop-color="#1b1024"/></radialGradient></defs><title>premiere</title><path fill="#7f5b7f" d="M0 0h200v200H0z"/><path fill="url(#a)" d="M200 40l-17.949-20L17.949 180l19.982 20H200V40z"/><path d="M24.786 26.838h150.428v146.324H24.786V26.838z" fill="url(#b)"/><path d="M24.786 26.838h150.428v146.324H24.786V26.838zM17.949 180h164.1V20h-164.1v160zm98.461-92.445c0-.821 0-2.8-.342-6.633a.728.728 0 0 1 .547-.889 71 71 0 0 1 25.026-4.718c.547 0 .82.137.82.684v9.915c0 .547-.205.684-.752.684-4.308-.205-10.53.342-12.923 1.367v43.077a.7.7 0 0 1-.821.82h-10.734a.7.7 0 0 1-.821-.82V87.555zm-43.76 6.223c1.572.137 2.8.137 5.539.137 8 0 15.521-2.8 15.521-13.675 0-8.684-5.333-13.06-14.5-13.06-2.735 0-5.333.137-6.564.205v26.393zM60.547 57.47a.66.66 0 0 1 .684-.821c4.376-.205 10.8-.342 17.573-.342 18.94 0 27.214 10.393 27.214 23.727 0 17.367-12.581 24.82-28.034 24.82-2.6 0-3.487-.137-5.333-.137v26.256a.7.7 0 0 1-.821.82H61.3a.7.7 0 0 1-.821-.82V57.47h.069z" fill="#bb83b9"/></svg>